<svg viewBox="0 0 13 16" fill="none" xmlns="http://www.w3.org/2000/svg">
<path d="M6.0209 0C2.69556 0 0 2.69556 0 6.0209C0 7.68297 0.673438 9.1879 1.76262 10.2774C2.8521 11.3675 5.41881 12.9449 5.56934 14.6007C5.5919 14.849 5.77164 15.0523 6.0209 15.0523C6.27017 15.0523 6.4499 14.849 6.47247 14.6007C6.62299 12.9449 9.1897 11.3675 10.2792 10.2774C11.3684 9.1879 12.0418 7.68297 12.0418 6.0209C12.0418 2.69556 9.34625 0 6.0209 0Z" fill="#FF4433"/>
<path d="M6.02187 8.12821C7.18571 8.12821 8.12916 7.18472 8.12916 6.02089C8.12916 4.85705 7.18571 3.91357 6.02187 3.91357C4.85804 3.91357 3.91455 4.85705 3.91455 6.02089C3.91455 7.18472 4.85804 8.12821 6.02187 8.12821Z" fill="white"/>
</svg>
